<?xml version="1.0" encoding="UTF-8"?>
<svg xmlns="http://www.w3.org/2000/svg" version="1.1" viewBox="0 0 595.28 361.89">
  <defs>
    <style>
      .cls-1 {
        fill: #087b35;
      }

      .cls-2 {
        fill: #001c71;
      }
    </style>
  </defs>
  <!-- Generator: Adobe Illustrator 28.7.1, SVG Export Plug-In . SVG Version: 1.2.0 Build 142)  -->
  <g>
    <g id="katman_1">
      <g>
        <path class="cls-1" d="M345.68,39.37c-6.45-3.95-18.73-6.59-41.29-5.33,0,0,5.59,1.33,12.35,17.63,6.75,16.31,17.98,19.19,28.49,14.55,0,0-.7-15.54-19.09-23.31,0,0,17.41,3.24,23.42,15.64h0c1.74,3.52,3.38,5.69,3.38,5.69-3.5-25.48,26.06-40.46,26.06-40.46-24.12,17.7-21.4,43.18-21.4,43.18,15.95,4.67,31.12-3.11,36.76-31.51,5.64-28.4,13.23-32.09,13.23-32.09-47.16,6.09-60.29,21.99-61.9,36.01Z"/>
        <g>
          <path class="cls-2" d="M553.56,86.36c1.71,0,3.39.44,5.02,1.32,1.63.88,2.9,2.14,3.81,3.77.91,1.64,1.37,3.34,1.37,5.12s-.45,3.45-1.35,5.07c-.9,1.62-2.15,2.88-3.77,3.78-1.62.9-3.31,1.35-5.08,1.35s-3.46-.45-5.08-1.35c-1.62-.9-2.88-2.16-3.78-3.78-.9-1.62-1.35-3.31-1.35-5.07s.46-3.48,1.37-5.12c.91-1.64,2.19-2.9,3.82-3.77,1.63-.88,3.3-1.32,5.02-1.32ZM553.56,88.05c-1.43,0-2.83.37-4.19,1.1-1.36.73-2.42,1.79-3.19,3.15-.77,1.37-1.15,2.79-1.15,4.27s.38,2.88,1.13,4.23c.75,1.35,1.81,2.4,3.16,3.15,1.35.75,2.76,1.13,4.23,1.13s2.88-.38,4.23-1.13c1.35-.75,2.4-1.8,3.15-3.15.75-1.35,1.12-2.76,1.12-4.23s-.38-2.9-1.14-4.27c-.76-1.37-1.82-2.42-3.19-3.15-1.36-.73-2.76-1.1-4.18-1.1ZM549.08,102.21v-10.98h3.77c1.29,0,2.22.1,2.8.3.58.2,1.04.56,1.38,1.06.34.5.51,1.04.51,1.61,0,.8-.29,1.5-.86,2.1-.57.6-1.33.93-2.28,1,.39.16.7.36.93.58.44.43.98,1.16,1.62,2.18l1.34,2.15h-2.16l-.97-1.73c-.77-1.36-1.38-2.21-1.85-2.56-.32-.25-.8-.38-1.42-.38h-1.04v4.67h-1.77ZM550.85,96.03h2.15c1.03,0,1.73-.15,2.1-.46.37-.31.56-.71.56-1.22,0-.32-.09-.62-.27-.87-.18-.26-.43-.45-.75-.57-.32-.13-.91-.19-1.78-.19h-2.02v3.31Z"/>
          <path class="cls-2" d="M230.77,358.53c-11.65,0-21.91-2.01-28.47-3.7-7.73-1.99-14.28-5.36-19.47-10.02-16.33-14.66-13.64-33.15-10.58-42.87,6.26-19.92,24.04-36.61,41.56-39.16-7.56,8.42-22.66,30.08-11.96,59.77,5.21,14.46,16.53,23.09,30.28,23.09,17.24,0,38.53-14.25,44.51-45.54.75-3.95,1.12-8.18,1.12-12.93V107.78l-2.5-.12c-4.97-.23-10.6-.49-16.39-.49-16.03,0-38.79,1.81-51.31,17.51-9.82,12.32-11.86,31.49-6.04,56.97,9.92,43.47,30.23,52.59,45.53,52.59,7.11,0,13.35-1.98,17.42-3.69-3.82,9.43-11.45,16.18-22.69,20.07-8.6,2.98-16.2,3.07-16.28,3.07-.16,0-.36.01-.7.01-3.2,0-19.91-.74-34.23-15.28-15.27-15.52-22.73-41.04-22.18-75.86.43-27.16,9.89-46.94,28.11-58.77,13.28-8.63,30.87-13,52.26-13,14.73,0,26.62,2.17,29.91,2.84l.67.14.64-.23c5.19-1.84,12.95-4.03,20.45-4.03,4.35,0,8.16.74,11.33,2.2v176.97c0,17.91-4.14,34.98-11.98,49.38-18.21,33.45-47.58,40.47-69,40.47h0Z"/>
          <path class="cls-2" d="M338.84,253.71c-1.45,0-2.62-1.18-2.62-2.62V96.37c3.11-1.72,13.22-6.85,23.46-6.85,3.9,0,7.44.74,10.55,2.19v159.38c0,1.45-1.18,2.62-2.62,2.62h-28.77Z"/>
          <path class="cls-2" d="M441.97,254.64c-.69,0-1.25-.41-1.47-1.08-.24-.71.04-1.43.68-1.8,22.53-12.81,22.4-30.73,22.39-31.49,0-13.92-7.32-22.32-30.14-34.54-23.3-12.55-42.6-25.11-42.6-51.89,0-23.06,15.99-40.29,41.73-44.98.13-.02.27-.04.41-.04.57,0,1.1.22,1.49.63.46.48.69,1.19.65,2-.01.29-.26.78-.92,1.19-19.52,12.15-18.11,28.35-18.04,29.04,0,13.13,7.92,21.52,31.39,33.26,23.73,11.75,50.61,25.07,50.61,50.39,0,.4-1.66,42.42-55.96,49.31-.07,0-.14.01-.21.01Z"/>
          <path class="cls-2" d="M535.96,254.64c-.68,0-1.25-.42-1.47-1.09-.24-.71.04-1.43.68-1.79,22.71-12.91,22.39-31.32,22.39-31.51,0-13.9-7.32-22.3-30.13-34.52-23.3-12.55-42.59-25.11-42.59-51.89,0-23.06,15.99-40.29,41.73-44.98.13-.02.27-.03.4-.03.89,0,1.62.51,1.95,1.36.37.96.04,1.97-.82,2.51-19.44,12.15-18.02,28.3-17.95,28.98,0,13.13,7.92,21.52,31.39,33.26,23.73,11.75,50.61,25.07,50.61,50.39,0,.4-1.71,42.43-55.96,49.31-.07,0-.14.01-.21.01Z"/>
          <path class="cls-2" d="M112.13,253.71c-1.26,0-2.29-1.03-2.29-2.29v-45.68c0-8.25-2.36-15.94-6.83-22.24l-.08-.12c-13.19-18.46-36.15-30.91-63-34.17l-2.76-.33v102.55c0,1.26-1.03,2.29-2.29,2.29H5.43c-1.26,0-2.29-1.03-2.29-2.29V91.35s0-12.67,0-12.67c3.11-1.46,6.66-2.19,10.55-2.19,10.23,0,20.35,5.13,23.46,6.85v10.41h0v50.21l2.73-.3c5.34-.58,10.75-.87,16.06-.87s10.6.3,15.68.88c12.3,1.41,23.96,4.72,34.67,9.83l3.53,1.68v-44.02c0-10.06-3.02-19.6-8.73-27.59-13.33-18.65-36.55-31.14-63.72-34.26-5.26-.6-10.71-.91-16.22-.91-2.37,0-4.77.06-7.16.17,12.47-3.62,26.5-5.58,40.12-5.58,5.33,0,10.61.3,15.7.88,19.7,2.26,38.21,9.57,52.13,20.58,13.35,10.55,21.1,23.28,21.84,35.83l.07,1.22v149.92c0,1.26-1.03,2.29-2.29,2.29h-29.45Z"/>
        </g>
      </g>
    </g>
  </g>
</svg>